<svg width="32" height="32" xmlns="http://www.w3.org/2000/svg">

 <g>
  <title>background</title>
  <rect fill="none" id="canvas_background" height="402" width="582" y="-1" x="-1"/>
 </g>
 <g>
  <title>Layer 1</title>
  <path fill="#fffffc" id="svg_1" d="m4,10l24,0c1.104,0 2,-0.896 2,-2s-0.896,-2 -2,-2l-24,0c-1.104,0 -2,0.896 -2,2s0.896,2 2,2zm24,4l-24,0c-1.104,0 -2,0.896 -2,2s0.896,2 2,2l24,0c1.104,0 2,-0.896 2,-2s-0.896,-2 -2,-2zm0,8l-24,0c-1.104,0 -2,0.896 -2,2s0.896,2 2,2l24,0c1.104,0 2,-0.896 2,-2s-0.896,-2 -2,-2z"/>
  <path id="svg_2" d="m3.814861,8.296325" opacity="0.5" fill-opacity="null" stroke-opacity="null" stroke-width="null" stroke="null" fill="null"/>
  <path stroke="null" d="m5.888927,7.333366c0,0 -0.296295,0 -0.59259,0c-0.370369,0 -0.752015,0.01738 -0.888885,0.074074c-0.096782,0.040089 -0.1847,0.065078 -0.222221,0.296295c-0.023731,0.146235 -0.074074,0.296296 -0.074074,0.518517c0,0.148148 -0.013254,0.466568 0.222221,0.59259c0.130618,0.069904 0.672607,0.214231 1.037033,0.148148c0.622731,-0.112923 1.456094,-0.77731 2.296288,-1.333329c0.360191,-0.238365 0.632679,-0.347661 0.59259,-0.444443c-0.056694,-0.13687 -0.446077,-0.136077 -1.037033,-0.222221c-0.445861,-0.064994 -1.059522,-0.12055 -1.55555,0.148148c-0.469671,0.25442 -0.60791,0.356492 -0.740738,0.518517c-0.169324,0.206542 -0.222221,0.666665 -0.222221,0.888886c0,0.148148 0.296295,0.222221 0.666664,0.296295l0.222221,0l0.148148,0l0.370369,0" id="svg_3" stroke-opacity="null" stroke-width="null" fill="none"/>
 </g>
</svg>